<mxfile host="Electron" agent="Mozilla/5.0 (Macintosh; Intel Mac OS X 10_15_7) AppleWebKit/537.36 (KHTML, like Gecko) draw.io/24.7.8 Chrome/128.0.6613.36 Electron/32.0.1 Safari/537.36" version="24.7.8">
  <diagram name="cmake-process" id="upY_r69YD5X1Qq89Xxo3">
    <mxGraphModel dx="983" dy="751" grid="1" gridSize="10" guides="1" tooltips="1" connect="1" arrows="1" fold="1" page="1" pageScale="1" pageWidth="1600" pageHeight="900" math="0" shadow="0">
      <root>
        <mxCell id="0" />
        <mxCell id="1" parent="0" />
        <mxCell id="yuHKUuSGoRQuR1l0D2B4-40" style="edgeStyle=none;shape=connector;rounded=0;orthogonalLoop=1;jettySize=auto;html=1;exitX=0.5;exitY=1;exitDx=0;exitDy=0;entryX=0.5;entryY=0;entryDx=0;entryDy=0;strokeColor=#999999;align=center;verticalAlign=middle;fontFamily=Helvetica;fontSize=16;fontColor=#B3B3B3;labelBackgroundColor=none;endArrow=classic;" edge="1" parent="1" source="yuHKUuSGoRQuR1l0D2B4-1" target="yuHKUuSGoRQuR1l0D2B4-3">
          <mxGeometry relative="1" as="geometry" />
        </mxCell>
        <mxCell id="yuHKUuSGoRQuR1l0D2B4-1" value=".cpp&lt;div&gt;(source code)&lt;/div&gt;" style="rounded=1;whiteSpace=wrap;html=1;fillColor=#66B2FF;strokeColor=none;fontColor=#FFFFFF;fontSize=12;" vertex="1" parent="1">
          <mxGeometry x="445" y="305" width="80" height="40" as="geometry" />
        </mxCell>
        <mxCell id="yuHKUuSGoRQuR1l0D2B4-3" value="CMakeList.txt" style="rounded=1;whiteSpace=wrap;html=1;fillColor=#66B2FF;strokeColor=none;fontColor=#FFFFFF;fontSize=12;" vertex="1" parent="1">
          <mxGeometry x="440" y="365" width="90" height="30" as="geometry" />
        </mxCell>
        <mxCell id="yuHKUuSGoRQuR1l0D2B4-4" value="Makefile" style="rounded=1;whiteSpace=wrap;html=1;fillColor=#66B2FF;strokeColor=none;fontColor=#FFFFFF;fontSize=12;" vertex="1" parent="1">
          <mxGeometry x="760" y="310" width="65" height="30" as="geometry" />
        </mxCell>
        <mxCell id="yuHKUuSGoRQuR1l0D2B4-31" style="edgeStyle=none;shape=connector;rounded=0;orthogonalLoop=1;jettySize=auto;html=1;exitX=1;exitY=0.5;exitDx=0;exitDy=0;strokeColor=#999999;align=center;verticalAlign=middle;fontFamily=Helvetica;fontSize=16;fontColor=#FFFFFF;labelBackgroundColor=default;endArrow=classic;entryX=0;entryY=0.5;entryDx=0;entryDy=0;" edge="1" parent="1" source="yuHKUuSGoRQuR1l0D2B4-5" target="yuHKUuSGoRQuR1l0D2B4-28">
          <mxGeometry relative="1" as="geometry">
            <mxPoint x="905" y="379.9999999999999" as="targetPoint" />
          </mxGeometry>
        </mxCell>
        <mxCell id="yuHKUuSGoRQuR1l0D2B4-5" value="build.ninja" style="rounded=1;whiteSpace=wrap;html=1;fillColor=#66B2FF;strokeColor=none;fontColor=#FFFFFF;fontSize=12;" vertex="1" parent="1">
          <mxGeometry x="760" y="365" width="65" height="30" as="geometry" />
        </mxCell>
        <mxCell id="yuHKUuSGoRQuR1l0D2B4-32" style="edgeStyle=none;shape=connector;rounded=0;orthogonalLoop=1;jettySize=auto;html=1;exitX=1;exitY=0.5;exitDx=0;exitDy=0;entryX=0;entryY=0.75;entryDx=0;entryDy=0;strokeColor=#999999;align=center;verticalAlign=middle;fontFamily=Helvetica;fontSize=16;fontColor=#FFFFFF;labelBackgroundColor=default;endArrow=classic;" edge="1" parent="1" source="yuHKUuSGoRQuR1l0D2B4-7" target="yuHKUuSGoRQuR1l0D2B4-28">
          <mxGeometry relative="1" as="geometry" />
        </mxCell>
        <mxCell id="yuHKUuSGoRQuR1l0D2B4-7" value=".sln" style="rounded=1;whiteSpace=wrap;html=1;fillColor=#66B2FF;strokeColor=none;fontColor=#FFFFFF;fontSize=12;" vertex="1" parent="1">
          <mxGeometry x="760" y="420" width="65" height="30" as="geometry" />
        </mxCell>
        <mxCell id="yuHKUuSGoRQuR1l0D2B4-13" style="shape=connector;rounded=0;orthogonalLoop=1;jettySize=auto;html=1;exitX=1;exitY=0.5;exitDx=0;exitDy=0;exitPerimeter=0;entryX=0;entryY=0.5;entryDx=0;entryDy=0;strokeColor=#999999;align=center;verticalAlign=middle;fontFamily=Helvetica;fontSize=16;fontColor=#FFFFFF;labelBackgroundColor=default;endArrow=classic;" edge="1" parent="1" source="yuHKUuSGoRQuR1l0D2B4-10" target="yuHKUuSGoRQuR1l0D2B4-22">
          <mxGeometry relative="1" as="geometry" />
        </mxCell>
        <mxCell id="yuHKUuSGoRQuR1l0D2B4-14" style="edgeStyle=orthogonalEdgeStyle;shape=connector;rounded=0;orthogonalLoop=1;jettySize=auto;html=1;exitX=1;exitY=0.5;exitDx=0;exitDy=0;exitPerimeter=0;strokeColor=#999999;align=center;verticalAlign=middle;fontFamily=Helvetica;fontSize=16;fontColor=#FFFFFF;labelBackgroundColor=default;endArrow=classic;" edge="1" parent="1" source="yuHKUuSGoRQuR1l0D2B4-10" target="yuHKUuSGoRQuR1l0D2B4-23">
          <mxGeometry relative="1" as="geometry" />
        </mxCell>
        <mxCell id="yuHKUuSGoRQuR1l0D2B4-15" style="shape=connector;rounded=0;orthogonalLoop=1;jettySize=auto;html=1;exitX=1;exitY=0.5;exitDx=0;exitDy=0;exitPerimeter=0;entryX=0;entryY=0.5;entryDx=0;entryDy=0;strokeColor=#999999;align=center;verticalAlign=middle;fontFamily=Helvetica;fontSize=16;fontColor=#FFFFFF;labelBackgroundColor=default;endArrow=classic;" edge="1" parent="1" source="yuHKUuSGoRQuR1l0D2B4-24" target="yuHKUuSGoRQuR1l0D2B4-7">
          <mxGeometry relative="1" as="geometry" />
        </mxCell>
        <mxCell id="yuHKUuSGoRQuR1l0D2B4-10" value="CMake" style="strokeWidth=2;html=1;shape=mxgraph.flowchart.decision;whiteSpace=wrap;rounded=1;align=center;verticalAlign=middle;fontFamily=Helvetica;fontSize=16;fontColor=#FFFFFF;fillColor=#FF8000;strokeColor=#FFB570;" vertex="1" parent="1">
          <mxGeometry x="560" y="360" width="90" height="40" as="geometry" />
        </mxCell>
        <mxCell id="yuHKUuSGoRQuR1l0D2B4-11" style="edgeStyle=orthogonalEdgeStyle;rounded=0;orthogonalLoop=1;jettySize=auto;html=1;exitX=1;exitY=0.5;exitDx=0;exitDy=0;entryX=0;entryY=0.5;entryDx=0;entryDy=0;entryPerimeter=0;fontFamily=Helvetica;fontSize=16;fontColor=#FFFFFF;strokeColor=#999999;" edge="1" parent="1" source="yuHKUuSGoRQuR1l0D2B4-3" target="yuHKUuSGoRQuR1l0D2B4-10">
          <mxGeometry relative="1" as="geometry" />
        </mxCell>
        <mxCell id="yuHKUuSGoRQuR1l0D2B4-27" style="edgeStyle=orthogonalEdgeStyle;shape=connector;rounded=0;orthogonalLoop=1;jettySize=auto;html=1;exitX=1;exitY=0.5;exitDx=0;exitDy=0;entryX=0;entryY=0.5;entryDx=0;entryDy=0;strokeColor=#999999;align=center;verticalAlign=middle;fontFamily=Helvetica;fontSize=16;fontColor=#FFFFFF;labelBackgroundColor=default;endArrow=classic;" edge="1" parent="1" source="yuHKUuSGoRQuR1l0D2B4-22" target="yuHKUuSGoRQuR1l0D2B4-4">
          <mxGeometry relative="1" as="geometry" />
        </mxCell>
        <mxCell id="yuHKUuSGoRQuR1l0D2B4-22" value="&lt;font style=&quot;font-size: 10px;&quot;&gt;Unix&lt;/font&gt;&lt;div style=&quot;font-size: 10px;&quot;&gt;&lt;font style=&quot;font-size: 10px;&quot;&gt;Makefile&lt;/font&gt;&lt;/div&gt;" style="ellipse;whiteSpace=wrap;html=1;aspect=fixed;rounded=1;align=center;verticalAlign=middle;fontFamily=Helvetica;fontSize=10;fontColor=#999999;labelBackgroundColor=none;fillColor=none;strokeColor=#808080;" vertex="1" parent="1">
          <mxGeometry x="687.5" y="302.5" width="45" height="45" as="geometry" />
        </mxCell>
        <mxCell id="yuHKUuSGoRQuR1l0D2B4-26" style="edgeStyle=orthogonalEdgeStyle;shape=connector;rounded=0;orthogonalLoop=1;jettySize=auto;html=1;exitX=1;exitY=0.5;exitDx=0;exitDy=0;entryX=0;entryY=0.5;entryDx=0;entryDy=0;strokeColor=#999999;align=center;verticalAlign=middle;fontFamily=Helvetica;fontSize=16;fontColor=#FFFFFF;labelBackgroundColor=default;endArrow=classic;" edge="1" parent="1" source="yuHKUuSGoRQuR1l0D2B4-23" target="yuHKUuSGoRQuR1l0D2B4-5">
          <mxGeometry relative="1" as="geometry" />
        </mxCell>
        <mxCell id="yuHKUuSGoRQuR1l0D2B4-23" value="Ninja" style="ellipse;whiteSpace=wrap;html=1;aspect=fixed;rounded=1;align=center;verticalAlign=middle;fontFamily=Helvetica;fontSize=10;fontColor=#999999;labelBackgroundColor=none;fillColor=none;strokeColor=#808080;" vertex="1" parent="1">
          <mxGeometry x="687.5" y="357.5" width="45" height="45" as="geometry" />
        </mxCell>
        <mxCell id="yuHKUuSGoRQuR1l0D2B4-25" value="" style="shape=connector;rounded=0;orthogonalLoop=1;jettySize=auto;html=1;exitX=1;exitY=0.5;exitDx=0;exitDy=0;exitPerimeter=0;entryX=0;entryY=0.5;entryDx=0;entryDy=0;strokeColor=#999999;align=center;verticalAlign=middle;fontFamily=Helvetica;fontSize=16;fontColor=#FFFFFF;labelBackgroundColor=default;endArrow=classic;" edge="1" parent="1" source="yuHKUuSGoRQuR1l0D2B4-10" target="yuHKUuSGoRQuR1l0D2B4-24">
          <mxGeometry relative="1" as="geometry">
            <mxPoint x="600" y="380" as="sourcePoint" />
            <mxPoint x="730" y="460" as="targetPoint" />
          </mxGeometry>
        </mxCell>
        <mxCell id="yuHKUuSGoRQuR1l0D2B4-24" value="Visual&lt;div style=&quot;font-size: 10px;&quot;&gt;Studio&lt;/div&gt;" style="ellipse;whiteSpace=wrap;html=1;aspect=fixed;rounded=1;align=center;verticalAlign=middle;fontFamily=Helvetica;fontSize=10;fontColor=#999999;labelBackgroundColor=none;fillColor=none;strokeColor=#808080;" vertex="1" parent="1">
          <mxGeometry x="687.5" y="412.5" width="45" height="45" as="geometry" />
        </mxCell>
        <mxCell id="yuHKUuSGoRQuR1l0D2B4-28" value="exe" style="rounded=1;whiteSpace=wrap;html=1;fillColor=#66B2FF;strokeColor=none;fontColor=#FFFFFF;fontSize=12;" vertex="1" parent="1">
          <mxGeometry x="870" y="365" width="40" height="30" as="geometry" />
        </mxCell>
        <mxCell id="yuHKUuSGoRQuR1l0D2B4-30" style="shape=connector;rounded=0;orthogonalLoop=1;jettySize=auto;html=1;exitX=1;exitY=0.5;exitDx=0;exitDy=0;strokeColor=#999999;align=center;verticalAlign=middle;fontFamily=Helvetica;fontSize=16;fontColor=#FFFFFF;labelBackgroundColor=default;endArrow=classic;entryX=0;entryY=0.25;entryDx=0;entryDy=0;" edge="1" parent="1" source="yuHKUuSGoRQuR1l0D2B4-4" target="yuHKUuSGoRQuR1l0D2B4-28">
          <mxGeometry relative="1" as="geometry">
            <mxPoint x="645" y="390" as="sourcePoint" />
            <mxPoint x="675" y="335" as="targetPoint" />
          </mxGeometry>
        </mxCell>
        <mxCell id="yuHKUuSGoRQuR1l0D2B4-36" value="&lt;font style=&quot;font-size: 12px;&quot;&gt;cmake -G&lt;/font&gt;" style="text;html=1;align=center;verticalAlign=middle;whiteSpace=wrap;rounded=0;fontFamily=Helvetica;fontSize=16;fontColor=#999999;labelBackgroundColor=none;" vertex="1" parent="1">
          <mxGeometry x="680" y="280" width="60" height="20" as="geometry" />
        </mxCell>
        <mxCell id="yuHKUuSGoRQuR1l0D2B4-37" value="&lt;font style=&quot;font-size: 12px;&quot;&gt;build&lt;/font&gt;" style="text;html=1;align=center;verticalAlign=middle;whiteSpace=wrap;rounded=0;fontFamily=Helvetica;fontSize=16;fontColor=#999999;labelBackgroundColor=none;" vertex="1" parent="1">
          <mxGeometry x="825" y="280" width="40" height="20" as="geometry" />
        </mxCell>
      </root>
    </mxGraphModel>
  </diagram>
</mxfile>
